<svg xmlns="http://www.w3.org/2000/svg" width="836" height="272"><path fill="#4285F4" d="M108 124.7V96h96c1 5 1.6 11 1.6 17.6 0 21.5-6 48.1-24.9 67-18.4 19.2-42 29.5-73.2 29.5A106.4 106.4 0 0 1 1 105C1 47.3 49.6.1 107.5.1a100 100 0 0 1 72 29l-20.3 20.2a75.3 75.3 0 0 0-127 55.8c0 42.3 33 76.3 75.3 76.3 27.4 0 43-11 53-21a59.6 59.6 0 0 0 15.6-35.7H108z"/><path fill="#EA4335" d="M351.8 142.5c0 39-30.4 67.6-67.8 67.6s-67.8-28.7-67.8-67.6c0-39.2 30.4-67.6 67.8-67.6s67.8 28.4 67.8 67.6zm-29.7 0c0-24.3-17.6-41-38-41s-38.2 16.7-38.2 41c0 24 17.6 41 38.1 41s38.1-17 38.1-41z"/><path fill="#FBBC05" d="M499.8 142.5c0 39-30.4 67.6-67.8 67.6s-67.8-28.7-67.8-67.6c0-39.2 30.4-67.6 67.8-67.6s67.8 28.4 67.8 67.6zm-29.7 0c0-24.3-17.6-41-38-41s-38.2 16.7-38.2 41c0 24 17.6 41 38.1 41s38.1-17 38.1-41z"/><path fill="#4285F4" d="M641.7 79v121.4c0 49.9-29.4 70.4-64.3 70.4-32.7 0-52.4-22-59.9-40l25.9-10.7c4.6 11 15.9 24 34 24 22.3 0 36.1-13.8 36.1-39.6v-9.8h-1a46.1 46.1 0 0 1-35.6 15.4 67 67 0 0 1-64.7-67.3c0-38.2 31-67.9 64.7-67.9 16.2 0 29 7.2 35.6 15.1h1V79h28.2zm-26.1 63.8c0-23.8-15.9-41.3-36.1-41.3-20.5 0-37.6 17.5-37.6 41.3 0 23.5 17.1 40.7 37.6 40.7 20.2 0 36-17.2 36-40.7z"/><path fill="#34A853" d="M692 8v198h-29.7V8H692z"/><path fill="#EA4335" d="M806.7 164.8l23 15.3c-7.4 11-25.3 30-56.3 30-38.4 0-67-29.7-67-67.6 0-40.2 28.9-67.6 63.7-67.6 35 0 52.2 28 57.8 43l3.1 7.7-90.4 37.4a34.4 34.4 0 0 0 32.8 20.5c15.1 0 25.6-7.5 33.3-18.7zm-71-24.3l60.5-25.1c-3.4-8.5-13.3-14.4-25.1-14.4a37 37 0 0 0-35.3 39.5z"/></svg>
