<svg xmlns="http://www.w3.org/2000/svg" width="192" height="192"><path fill="#4285F4" d="M188 98.2c0-7-.7-13.7-1.8-20.2H96v37h52a44.6 44.6 0 0 1-19.3 29.8v24h30.9c18-16.7 28.4-41.4 28.4-70.6z"/><path fill="#34A853" d="M128.7 144.8A57.7 57.7 0 0 1 96 154c-25 0-46.3-16.9-53.9-39.6H10.2V139A96 96 0 0 0 96 192c26 0 47.7-8.5 63.6-23.2l-31-24z"/><path fill="#FBBC05" d="M39 96c0-6.4 1.2-12.6 3.1-18.4V53H10.2a95.6 95.6 0 0 0 0 86.2l31.9-24.7c-2-5.8-3-12-3-18.4z"/><path fill="#EA4335" d="M96 38c14.2 0 26.8 4.9 36.8 14.4L160.2 25A92 92 0 0 0 96 0a96 96 0 0 0-85.8 52.9l31.9 24.7A57.4 57.4 0 0 1 96 38z"/></svg>
